<svg t="1658027309330" class="icon" viewBox="0 0 1024 1024" version="1.1" xmlns="http://www.w3.org/2000/svg" p-id="15549" width="200" height="200"><path d="M878.9 88.6c11 0 20 9 20 20v806.8c0 11-9 20-20 20s-20-9-20-20V108.6c0-11 8.9-20 20-20z" p-id="15550"></path><path d="M146.9 85.9c3.8 0 7.5 1 10.9 2.9l700.3 404.3c6.7 3.9 10.9 11.1 10.9 18.8 0 7.7-4.2 15-10.9 18.8L157.8 935.2c-6.7 3.9-15 3.9-21.8 0-6.7-3.9-10.9-11.1-10.9-18.8V107.7c0-7.7 4.2-15 10.9-18.8 3.4-2 7.1-3 10.9-3zM810.7 512L165.1 139.3v745.4L810.7 512z m27.4 15.8z" p-id="15551"></path></svg>