<?xml version="1.0" standalone="no"?>
<!DOCTYPE svg PUBLIC "-//W3C//DTD SVG 20010904//EN"
 "http://www.w3.org/TR/2001/REC-SVG-20010904/DTD/svg10.dtd">
<svg version="1.0" xmlns="http://www.w3.org/2000/svg"
 width="512.000000pt" height="512.000000pt" viewBox="0 0 512.000000 512.000000"
 preserveAspectRatio="xMidYMid meet">

<g transform="translate(0.000000,512.000000) scale(0.100000,-0.100000)"
fill="#000000" stroke="none">
<path d="M1555 4570 c-65 -14 -110 -57 -121 -115 -12 -67 6 -91 210 -280 107
-99 195 -183 195 -187 1 -4 -225 -8 -501 -10 l-503 -3 -75 -29 c-228 -87 -384
-270 -452 -529 -21 -81 -22 -97 -26 -957 -2 -595 0 -909 8 -982 21 -213 95
-374 232 -509 74 -73 151 -120 253 -155 70 -24 99 -28 243 -32 110 -3 162 -8
162 -16 0 -67 74 -165 149 -199 64 -28 155 -26 219 7 75 38 132 116 132 181
l0 25 883 0 883 0 13 -52 c16 -62 73 -127 137 -159 54 -26 151 -28 206 -5 79
34 147 120 148 189 l0 27 119 0 c156 0 254 19 357 71 191 94 340 298 388 531
14 67 16 197 16 1002 0 999 0 996 -54 1140 -66 175 -191 315 -352 395 -113 56
-104 55 -638 61 l-499 5 192 178 c105 99 198 192 206 207 62 120 -65 242 -198
191 -16 -6 -101 -80 -190 -164 -89 -83 -226 -212 -303 -284 l-142 -133 -284 0
-285 0 -294 276 c-162 151 -304 282 -316 291 -31 21 -82 31 -118 23z m566
-1273 c159 -82 1390 -814 1416 -842 53 -56 56 -107 8 -163 -14 -16 -167 -113
-347 -217 -178 -104 -397 -232 -488 -285 -596 -350 -621 -364 -671 -364 -33
-1 -53 5 -69 19 -51 45 -50 25 -50 927 0 824 0 843 20 883 11 23 30 47 43 53
36 18 91 13 138 -11z"/>
</g>
</svg>
