<?xml version="1.0" standalone="no"?>
<!DOCTYPE svg PUBLIC "-//W3C//DTD SVG 20010904//EN"
 "http://www.w3.org/TR/2001/REC-SVG-20010904/DTD/svg10.dtd">
<svg version="1.0" xmlns="http://www.w3.org/2000/svg"
 width="512.000000pt" height="512.000000pt" viewBox="0 0 512.000000 512.000000"
 preserveAspectRatio="xMidYMid meet">

<g transform="translate(0.000000,512.000000) scale(0.100000,-0.100000)"
fill="#000000" stroke="none">
<path d="M1555 4570 c-65 -14 -110 -57 -121 -115 -12 -67 6 -91 210 -280 107
-99 195 -183 195 -187 1 -4 -225 -8 -501 -10 l-503 -3 -75 -29 c-228 -87 -384
-270 -452 -529 -21 -81 -22 -97 -26 -957 -2 -595 0 -909 8 -982 21 -213 95
-374 232 -509 74 -73 151 -120 253 -155 70 -24 99 -28 243 -32 110 -3 162 -8
162 -16 0 -67 74 -165 149 -199 64 -28 155 -26 219 7 75 38 132 116 132 181
l0 25 883 0 883 0 13 -52 c16 -62 73 -127 137 -159 54 -26 151 -28 206 -5 79
34 147 120 148 189 l0 27 119 0 c156 0 254 19 357 71 191 94 340 298 388 531
14 67 16 197 16 1002 0 999 0 996 -54 1140 -67 176 -191 315 -354 396 -116 57
-141 60 -662 60 l-475 1 125 116 c69 65 162 154 208 198 80 79 82 82 82 129 0
57 -23 100 -68 128 -36 22 -100 26 -145 9 -16 -6 -101 -80 -190 -164 -89 -83
-226 -212 -303 -284 l-142 -133 -284 0 -285 0 -294 276 c-162 151 -304 282
-316 291 -31 21 -82 31 -118 23z m558 -1311 c47 -13 112 -70 138 -120 18 -37
19 -67 19 -769 0 -707 -1 -732 -20 -769 -26 -51 -94 -109 -144 -122 -102 -28
-216 16 -271 105 l-30 49 0 736 0 736 28 47 c56 96 167 139 280 107z m1093
-25 c30 -18 60 -48 79 -78 l30 -49 0 -737 0 -737 -30 -49 c-97 -156 -332 -147
-415 17 -19 37 -20 62 -20 769 0 700 1 732 19 768 26 50 80 100 127 118 63 23
153 14 210 -22z"/>
</g>
</svg>
